<svg width="60" height="64" viewBox="0 0 60 64" fill="none" xmlns="http://www.w3.org/2000/svg">
<path d="M32.2217 29.8306C32.2217 29.8306 31.7879 30.2645 31.137 31.3493L10.5269 7.05095L17.7947 1.62718L19.2048 0.54248L29.9438 24.7323L32.2217 29.8306ZM49.5777 7.05095L32.2219 29.8306L29.9439 24.7323L40.7913 0.54248L42.2014 1.62718L49.5777 7.05095Z" fill="#ED2024"/>
<path d="M40.8998 0.54248L30.0524 24.7322H29.9438L19.2048 0.54248H40.8998Z" fill="#ECF4F7"/>
<path d="M58.2556 62.0475L50.6625 37.4238L44.154 39.2679L35.476 41.7629L41.9844 63.4578H55.0014C56.3031 63.4577 57.4963 62.9153 58.2556 62.0475L50.6625 37.4238L44.154 39.2679L35.476 41.7629L41.9844 63.4578H30.0522C29.9438 63.1324 27.8827 57.7086 27.8827 46.1019C27.8827 38.0748 29.8352 33.5188 31.1369 31.3494C31.7878 30.2647 32.2216 29.8307 32.2216 29.8307L49.5775 7.05109L42.3099 1.6272C45.5641 1.6272 49.5776 2.7119 49.5776 2.7119C55.0014 4.88143 57.1708 5.96614 58.2556 7.05084C59.3405 8.13554 59.3403 9.22037 59.3403 11.3898V59.1186C59.3405 60.2034 58.9065 61.2881 58.2556 62.0475ZM1.84892 62.0475C1.19808 61.2883 0.764221 60.312 0.764221 59.1187V10.3052C0.764221 8.13567 0.764221 8.13567 1.84892 7.05097C2.93363 5.96626 5.10316 4.88143 10.5269 2.71203C10.5269 2.71203 14.5404 1.62732 17.7947 1.62732L10.5269 7.05097L31.137 31.3493C29.8353 33.5188 27.8828 38.0748 27.8828 46.1018C27.8828 57.7086 29.9438 63.1323 30.0523 63.4577H18.1201L24.6286 41.7627L15.9506 39.2678L9.4421 37.4237L1.84892 62.0475L9.4421 37.4238L15.9506 39.2679L24.6286 41.7629L18.1201 63.4578H5.10316C3.80146 63.4577 2.6082 62.9153 1.84892 62.0475Z" fill="#FFF7E1"/>
<path d="M30.0523 64C29.8353 64 29.6185 63.8916 29.5099 63.6746C29.4015 63.4576 27.3404 58.0339 27.3404 46.1017C27.3404 35.5797 30.5946 30.9152 31.5709 29.7221L18.9878 1.41025L11.2862 7.15932L28.3167 27.3356C28.5336 27.5526 28.5337 27.878 28.2082 28.0949C27.9912 28.3118 27.6658 28.2033 27.4489 27.9864L10.0929 7.37631C9.98451 7.26788 9.98451 7.15932 9.98451 6.94245C9.98451 6.72546 10.0929 6.61703 10.2015 6.61703L18.7709 0.216991C18.8794 0.108432 18.9878 0 19.2048 0H40.8997C41.0082 0 41.1167 0 41.2252 0.108432L49.9032 6.6169C50.0116 6.72533 50.1202 6.83389 50.1202 6.94233C50.1202 7.05076 50.1202 7.26775 50.0117 7.37618L32.6559 30.1558C32.6559 30.1558 32.6559 30.2643 32.5474 30.2643C32.005 30.9151 28.4253 35.3626 28.4253 46.1016C28.4253 56.1897 29.944 61.6135 30.4863 62.9152H37.6456C37.9711 62.9152 38.1881 63.1322 38.1881 63.4576C38.1881 63.783 37.9711 64 37.6456 64H30.0523ZM20.0726 1.0847L32.3303 28.7457L48.8183 7.15932L41.1166 1.41013L32.764 20.2847C32.6556 20.6101 32.3302 20.7185 32.0047 20.6101C31.6793 20.5017 31.5709 20.1763 31.6793 19.8508L40.0319 1.0847H20.0726ZM55.0014 64H41.9844C41.7675 64 41.5506 63.8916 41.442 63.5661L34.9336 41.8712C34.9336 41.7628 34.9336 41.5458 34.9336 41.4373C34.9336 41.3289 35.1506 41.2204 35.259 41.2204L43.503 38.834V35.2543C43.503 34.9289 43.72 34.7119 44.0454 34.7119C44.3708 34.7119 44.5878 34.9289 44.5878 35.2543V38.617L50.4455 36.9898C50.7709 36.8814 50.9879 37.0983 51.0963 37.3153L55.4352 51.4169C55.5437 51.7423 55.3268 51.9593 55.1098 52.0678C54.7844 52.1762 54.5674 51.9593 54.459 51.7423L50.2285 38.183L36.1268 42.1965L42.3099 63.0236H54.893C56.9539 63.0236 58.6896 61.2881 58.6896 59.227V11.4984C58.6896 9.32885 58.6896 8.46114 57.7133 7.5933C56.7371 6.61703 54.5675 5.53233 49.2523 3.36279C48.9269 3.25436 48.8185 2.92894 48.9269 2.71195C49.0353 2.38652 49.3608 2.27809 49.5777 2.38652C55.1099 4.55606 57.2795 5.64076 58.4726 6.83402C59.6659 8.02728 59.6659 9.32898 59.7743 11.4984V59.3356C59.8827 61.8305 57.7133 64 55.0014 64ZM18.1201 64H5.10315C2.39133 64 0.221802 61.8305 0.221802 59.1186V10.3051C0.221802 8.13559 0.221802 7.91872 1.41506 6.61703C2.60833 5.42377 4.6693 4.33906 10.3099 2.16953C10.6354 2.0611 10.8523 2.16953 10.9608 2.49496C11.0692 2.82038 10.9608 3.03737 10.6354 3.1458C5.32015 5.31534 3.15061 6.29161 2.17434 7.37631C1.19807 8.35258 1.19807 8.35258 1.3065 10.1967V59.0102C1.3065 61.0712 3.04205 62.8069 5.10315 62.8069H17.6862L23.8693 41.9798L9.76764 37.966L5.53714 51.5253C5.42871 51.8508 5.10328 51.9592 4.88629 51.8508C4.56087 51.7423 4.45244 51.4169 4.56087 51.1999L8.89981 37.0983C9.00824 36.7729 9.33366 36.6644 9.55065 36.7729L15.4083 38.4V35.2543C15.4083 34.9289 15.6253 34.7119 15.9507 34.7119C16.2761 34.7119 16.4931 34.9289 16.4931 35.2543V38.834L24.7371 41.2204C24.8456 41.2204 24.9541 41.3288 25.0626 41.4373C25.171 41.5458 25.171 41.7628 25.0626 41.8712L18.5541 63.5661C18.554 63.8914 18.3371 64 18.1201 64ZM25.7133 64H22.459C22.1336 64 21.9166 63.783 21.9166 63.4576C21.9166 63.1322 22.1336 62.9152 22.459 62.9152H25.7133C26.0387 62.9152 26.2557 63.1322 26.2557 63.4576C26.2557 63.783 26.0387 64 25.7133 64ZM41.4422 46.644C40.7913 46.644 40.3575 46.2101 40.3575 45.5593C40.3575 44.9084 40.7913 44.4746 41.4422 44.4746C42.093 44.4746 42.5269 44.9084 42.5269 45.5593C42.5269 46.2101 42.093 46.644 41.4422 46.644ZM18.6625 46.644C18.0117 46.644 17.5778 46.2101 17.5778 45.5593C17.5778 44.9084 18.0117 44.4746 18.6625 44.4746C19.3134 44.4746 19.7472 44.9084 19.7472 45.5593C19.7472 46.2101 19.2048 46.644 18.6625 46.644ZM46.3235 29.2881H39.815C39.4896 29.2881 39.2726 29.0711 39.2726 28.7457C39.2726 28.4203 39.4896 28.2033 39.815 28.2033H46.3235C46.6489 28.2033 46.8659 28.4203 46.8659 28.7457C46.8659 29.0711 46.6489 29.2881 46.3235 29.2881Z" fill="#E1B137"/>
</svg>
