<svg width="65" height="81" viewBox="0 0 65 81" fill="none" xmlns="http://www.w3.org/2000/svg">
<rect width="65" height="81" fill="#E5E5E5"/>
<g clip-path="url(#clip0_0_1)">
<rect width="1920" height="7667" transform="translate(-741 -2498)" fill="white"/>
<rect x="-741" y="-263" width="1920" height="1048" fill="#FCF9F8"/>
<circle cx="32.5" cy="40.5" r="76.5" fill="white"/>
<path d="M28.2202 64.3269C24.7923 67.2502 20.1669 67.8537 16.0685 65.8804L16.0685 65.8804C15.0338 65.3821 14.105 64.7535 13.2968 64.0182L8.63153 74.3369L8.63151 74.337C8.63023 74.3398 8.62914 74.3424 8.62821 74.3447C8.62912 74.346 8.63002 74.3473 8.6309 74.3485L28.2202 64.3269ZM28.2202 64.3269L21.1382 79.9916L21.1381 79.9918C21.1369 79.9945 21.1357 79.9969 21.1347 79.9991C21.1332 79.9993 21.1317 79.9995 21.1303 79.9996L21.1267 79.9999C21.126 79.9999 21.1256 79.9999 21.1255 79.9999L21.1254 79.9999L21.1189 80C21.1187 80 21.118 80 21.1168 79.9999C21.1156 79.9976 21.1143 79.995 21.1128 79.9921L21.1128 79.9919L19.3785 76.4031C19.3785 76.4031 19.3785 76.4031 19.3785 76.403C18.3743 74.3248 16.2882 73.0708 14.0723 73.0708C13.5463 73.0708 13.0138 73.1417 12.4884 73.2877L12.4881 73.2878L8.64845 74.3566C8.64841 74.3566 8.64837 74.3566 8.64832 74.3566C8.64828 74.3566 8.64824 74.3566 8.6482 74.3566C8.64526 74.3574 8.64261 74.3581 8.64026 74.3587C8.63901 74.3576 8.63783 74.3564 8.63675 74.3554C8.6351 74.3537 8.63404 74.3526 8.63365 74.3521L28.2202 64.3269ZM8.65143 74.3673C8.65158 74.3674 8.65147 74.3673 8.6511 74.3671L8.65143 74.3673ZM8.65143 74.3673L8.91635 75.32M8.65143 74.3673L12.7563 74.2512L8.91635 75.32M8.91635 75.32C8.35536 75.476 8.00083 75.1503 7.87458 75.0031C7.74833 74.8558 7.48034 74.4558 7.72033 73.925L8.91635 75.32Z" fill="#FFF7E1" stroke="#A4A4A4" stroke-width="2"/>
<path d="M56.3683 74.3369L56.3684 74.3371C56.3696 74.3398 56.3707 74.3422 56.3715 74.3444C56.3707 74.3457 56.3698 74.3469 56.369 74.3481C56.3672 74.3505 56.3661 74.3519 56.3661 74.3518L56.3653 74.3528C56.3653 74.3528 56.3643 74.3539 56.3624 74.3558C56.3615 74.3567 56.3605 74.3577 56.3594 74.3587C56.357 74.3581 56.3543 74.3575 56.3513 74.3566L52.5114 73.2878L52.5112 73.2878C51.9859 73.1416 51.4532 73.0708 50.9272 73.0708C48.7114 73.0708 46.6251 74.3247 45.621 76.403C45.621 76.4031 45.621 76.4031 45.6209 76.4031L43.8868 79.9919L43.8867 79.9921C43.8853 79.995 43.8839 79.9976 43.8827 79.9999C43.882 80 43.8814 80 43.881 80L43.8741 79.9999C43.8741 79.9999 43.8737 79.9999 43.8728 79.9999L43.8691 79.9996C43.8678 79.9995 43.8663 79.9993 43.8649 79.9991C43.8638 79.9969 43.8626 79.9944 43.8613 79.9917L43.8613 79.9916L36.7791 64.3265C40.2071 67.2501 44.8326 67.8538 48.9313 65.8804C49.966 65.3822 50.8948 64.7536 51.703 64.0182L56.3683 74.3369Z" fill="#FFF7E1" stroke="#A4A4A4" stroke-width="2"/>
<path d="M15.8792 55.3588L15.8792 55.3589C15.6838 58.0373 17.2912 59.8055 18.9009 60.5809C20.5108 61.3561 22.8954 61.5106 24.8676 59.6878L24.8676 59.6878C27.011 57.707 29.7596 56.7196 32.4998 56.7196C35.241 56.7196 37.9882 57.7066 40.1319 59.6878C42.1045 61.5108 44.4892 61.3562 46.0988 60.5809L46.0989 60.5809C47.7085 59.8057 49.3159 58.0376 49.1206 55.359L49.1206 55.359C48.6968 49.5434 52.8739 44.3055 58.6379 43.4248L58.7889 44.4133L58.6379 43.4248C61.2927 43.0192 62.6587 41.0586 63.0564 39.3168C63.4539 37.5746 63.0735 35.2156 60.8579 33.6983C56.0467 30.404 54.5559 23.8722 57.4614 18.8166C58.7994 16.4882 58.1184 14.1976 57.0044 12.8005C55.8902 11.4039 53.8085 10.2305 51.2411 11.0164C45.6664 12.7239 39.6295 9.81728 37.4882 4.39349C36.5021 1.89563 34.2866 1 32.5 1C30.7134 1 28.4979 1.89562 27.5118 4.39363C25.3705 9.81759 19.3341 12.7238 13.7591 11.0167L15.8792 55.3588ZM15.8792 55.3588C16.303 49.5433 12.126 44.3054 6.36195 43.4248C3.70702 43.0191 2.34083 41.0587 1.94349 39.317C1.54608 37.575 1.92619 35.2159 4.14212 33.6985C8.95328 30.4041 10.4441 23.8722 7.53861 18.8167C6.2007 16.4881 6.88161 14.1979 7.99551 12.8008L15.8792 55.3588ZM7.99564 12.8006C9.10988 11.4039 11.1912 10.2307 13.759 11.0166L7.99564 12.8006ZM10.6775 32.3215C10.6775 44.3554 20.4661 54.1441 32.5 54.1441C44.5339 54.1441 54.3224 44.3552 54.3225 32.3214C54.3225 20.2875 44.534 10.4988 32.5 10.4988C20.466 10.4988 10.6775 20.2877 10.6775 32.3215Z" fill="#FFF7E1" stroke="#A4A4A4" stroke-width="2"/>
<ellipse cx="33.4404" cy="32.6187" rx="12" ry="10" fill="#ED2024"/>
<path d="M32.9402 15C23.5993 15 16 22.5994 16 31.9402C16 41.281 23.5991 48.8805 32.9402 48.8805C42.2813 48.8805 49.8805 41.281 49.8805 31.9402C49.8805 22.5994 42.2812 15 32.9402 15ZM41.6216 30.2978L31.0787 37.9983C30.7441 38.2427 30.3425 38.372 29.9337 38.372C29.8284 38.372 29.7225 38.3634 29.6172 38.346C29.1032 38.2611 28.6447 37.973 28.3451 37.5465L25.1914 33.0564C24.5752 32.1788 24.7871 30.9681 25.6643 30.3519C26.5417 29.7357 27.7523 29.9473 28.3686 30.8247L30.3857 33.6968L39.3318 27.1627C40.1976 26.5306 41.4122 26.7192 42.0443 27.5852C42.6767 28.4509 42.4873 29.6653 41.6216 30.2978Z" fill="#E1B137"/>
</g>
<defs>
<clipPath id="clip0_0_1">
<rect width="1920" height="7667" fill="white" transform="translate(-741 -2498)"/>
</clipPath>
</defs>
</svg>
