<svg width="74" height="74" viewBox="0 0 74 74" fill="none" xmlns="http://www.w3.org/2000/svg">
<path d="M37 74C16.5662 74 0 57.4338 0 37C0 16.5662 16.5662 -2.36928e-06 37 -2.36928e-06C57.4338 -2.36928e-06 74 16.5662 74 37C74 57.4338 57.4338 74 37 74Z" fill="#E1B137"/>
<path d="M34.7003 34.7003C35.289 34.1116 36.1022 33.7473 37 33.7473C38.7239 33.7473 40.1389 35.0955 40.2446 36.7935L56.2627 52.8133L52.8132 56.2628L37 40.4512L26.3619 51.0877L22.9123 47.6381L33.7554 36.7935C33.8041 35.977 34.1571 35.2435 34.7003 34.7003ZM37 69.1209C54.7112 69.1209 69.1208 54.7112 69.1208 37C69.1208 19.2888 54.7112 4.87915 37 4.87915C19.2888 4.87915 4.87909 19.2888 4.87909 37C4.87909 54.7112 19.2888 69.1209 37 69.1209Z" fill="white"/>
<path d="M37.2065 40.2446L37 40.4512L26.3619 51.0876L22.9124 47.6381L33.7554 36.7935C33.7489 36.8618 33.7473 36.9301 33.7473 37L37 40.2527C37.0699 40.2527 37.1382 40.2511 37.2065 40.2446Z" fill="#D6D6D6"/>
<path d="M56.2628 52.8132L52.8132 56.2628L37 40.4512L37.2066 40.2446L40.2527 37C40.2527 36.9301 40.2511 36.8617 40.2446 36.7934L56.2628 52.8132Z" fill="#ED2024"/>
<path d="M35.931 37.6559L20.3321 22.057C19.8558 21.5806 19.8558 20.8083 20.3321 20.3321C20.5702 20.094 20.8825 19.9748 21.1946 19.9748C21.5067 19.9748 21.819 20.0938 22.0571 20.3321L37.6559 35.931L35.931 37.6559Z" fill="#D6D6D6"/>
<path d="M37 33.7472C38.7936 33.7472 40.2528 35.2064 40.2528 37C40.2528 38.7936 38.7936 40.2527 37 40.2527C35.2064 40.2527 33.7473 38.7936 33.7473 37C33.7473 35.2064 35.2064 33.7472 37 33.7472Z" fill="#ED2024"/>
<path d="M37 58.1429C36.3263 58.1429 35.7802 58.689 35.7802 59.3626V64.2418C35.7802 64.9154 36.3263 65.4615 37 65.4615C37.6736 65.4615 38.2198 64.9154 38.2198 64.2418V59.3626C38.2198 58.689 37.6736 58.1429 37 58.1429Z" fill="#E1B137"/>
<path d="M64.2418 35.7802H59.3627C58.689 35.7802 58.1429 36.3264 58.1429 37C58.1429 37.6737 58.689 38.2198 59.3627 38.2198H64.2418C64.9154 38.2198 65.4616 37.6737 65.4616 37C65.4616 36.3264 64.9154 35.7802 64.2418 35.7802Z" fill="#E1B137"/>
<path d="M37 8.53844C36.3263 8.53844 35.7802 9.08457 35.7802 9.75822V14.6373C35.7802 15.311 36.3263 15.8571 37 15.8571C37.6736 15.8571 38.2198 15.311 38.2198 14.6373V9.75822C38.2198 9.08457 37.6736 8.53844 37 8.53844Z" fill="#E1B137"/>
<path d="M14.6374 35.7802H9.75823C9.08459 35.7802 8.53845 36.3264 8.53845 37C8.53845 37.6737 9.08459 38.2198 9.75823 38.2198H14.6374C15.311 38.2198 15.8571 37.6737 15.8571 37C15.8571 36.3264 15.311 35.7802 14.6374 35.7802Z" fill="#E1B137"/>
</svg>
