<svg width="72" height="80" viewBox="0 0 72 80" fill="none" xmlns="http://www.w3.org/2000/svg">
<path d="M40.847 38.7307H39.8745H35.9843H35.0118C34.474 38.7307 34.0393 39.1654 34.0393 39.7032C34.0393 40.241 34.474 40.6757 35.0118 40.6757V42.6208C35.0118 43.6935 35.8842 44.566 36.957 44.566H38.9021C39.9748 44.566 40.8472 43.6936 40.8472 42.6208V40.6757C41.385 40.6757 41.8197 40.241 41.8197 39.7032C41.8195 39.1655 41.3848 38.7307 40.847 38.7307Z" fill="#E1B137"/>
<path d="M23.3412 40.6757C23.8791 40.6757 24.3137 40.241 24.3137 39.7032C24.3137 39.1654 23.8791 38.7307 23.3412 38.7307H22.3687H18.4786H17.5061C16.9683 38.7307 16.5336 39.1654 16.5336 39.7032C16.5336 40.241 16.9683 40.6757 17.5061 40.6757V42.6208C17.5061 43.6935 18.3784 44.566 19.4512 44.566H21.3963C22.469 44.566 23.3415 43.6936 23.3415 42.6208V40.6757H23.3412Z" fill="#ED2024"/>
<mask id="path-3-inside-1_1_210" fill="white">
<path d="M58.3423 47.5144L53.0555 11.3923C52.6645 8.70808 50.946 6.45661 48.4602 5.37036L36.3735 0.0816023C36.3559 0.0738523 36.3375 0.0747641 36.32 0.0680399C36.2607 0.0457018 36.2004 0.0311137 36.1372 0.0204006C36.1032 0.0154999 36.0701 0.00877566 36.0351 0.00683817C36.0176 0.00581245 36.0021 0 35.9845 0H22.3689C22.3513 0 22.3348 0.00581245 22.3174 0.00683817C22.2843 0.00877566 22.2522 0.0156138 22.2191 0.0204006C22.155 0.030088 22.0927 0.0457018 22.0325 0.0680399C22.0149 0.0748781 21.9964 0.0748781 21.979 0.0816023L9.89309 5.37025C7.40627 6.45661 5.68784 8.70796 5.29692 11.3922L0.0102139 47.5144C-0.0305873 47.7935 0.0520407 48.0775 0.236786 48.2905C0.362266 48.4364 0.533449 48.5201 0.714318 48.5707L0.67158 48.7408C0.443071 49.655 0.645367 50.6051 1.22399 51.3482C1.80455 52.0912 2.6779 52.5172 3.6194 52.5172H6.16742C7.56401 52.5172 8.77676 51.5709 9.11525 50.2142L9.51209 48.6271H9.72601C10.2035 48.6271 10.611 48.2808 10.6859 47.8082L12.6436 35.5746V55.4347C12.6436 56.2109 12.9461 56.9403 13.4975 57.4887C14.0392 58.0284 14.757 58.327 15.5263 58.3455C15.5379 58.3455 15.5486 58.3523 15.5613 58.3523H15.5992H15.6099H42.7438H42.7554H42.7924C42.804 58.3523 42.8138 58.3465 42.8264 58.3455C43.5947 58.328 44.3134 58.0284 44.8561 57.4887C45.4066 56.9401 45.71 56.2107 45.71 55.4347V35.5745L47.6667 47.8081C47.7426 48.2807 48.1492 48.627 48.6276 48.627H48.8406L49.2579 50.293C49.5846 51.6029 50.7555 52.5172 52.1055 52.5172H54.8665C55.7759 52.5172 56.6191 52.1058 57.1802 51.3881C57.7404 50.6714 57.9349 49.7523 57.7132 48.8702L57.6393 48.5707C57.8202 48.5201 57.9905 48.4364 58.1168 48.2905C58.3005 48.0775 58.3831 47.7935 58.3423 47.5144ZM34.229 1.94501L33.0133 3.89013H25.3389L24.1232 1.94501H34.229ZM17.5977 56.206C17.3516 56.2536 17.1026 56.2925 16.8507 56.3227C16.7563 56.3343 16.663 56.346 16.5697 56.3548C16.2798 56.382 15.9872 56.3986 15.6914 56.4024C15.6584 56.4033 15.6253 56.4063 15.5923 56.4063C15.317 56.4044 15.0602 56.3003 14.8697 56.1107C14.6878 55.9298 14.5886 55.6896 14.5886 55.4347V23.3409C14.5886 22.8342 14.1986 22.4121 13.693 22.3712C13.6667 22.3693 13.6404 22.3683 13.6151 22.3683C13.1415 22.3683 12.7321 22.7126 12.6553 23.1871L8.89631 46.6819H8.7534H2.09825L7.22062 11.6733C7.51534 9.65824 8.80491 7.96899 10.6712 7.15194L19.8763 3.12471L16.6815 8.23738C16.4199 8.65656 16.5132 9.20407 16.8984 9.51236L21.4702 13.1701L22.3815 18.6377C22.3932 18.7077 22.4127 18.7748 22.438 18.839L26.259 28.3912V30.1486H25.2865C25.2865 29.6108 24.8508 29.1761 24.314 29.1761C23.7762 29.1761 23.3415 29.6108 23.3415 30.1486V32.0937C23.3415 32.6316 23.7762 33.0662 24.314 33.0662C24.8508 33.0662 25.2865 32.6316 25.2865 32.0937H26.259V35.9839H25.2865C25.2865 35.446 24.8508 35.0114 24.314 35.0114C23.7762 35.0114 23.3415 35.446 23.3415 35.9839V37.929C23.3415 38.4668 23.7762 38.9015 24.314 38.9015C24.8508 38.9015 25.2865 38.4668 25.2865 37.929H26.259V45.7093C26.259 46.0419 26.2386 46.3688 26.2084 46.6936C26.2007 46.7821 26.1889 46.8706 26.1792 46.9581C26.149 47.2139 26.1112 47.4677 26.0625 47.7177C26.0499 47.7887 26.0372 47.8597 26.0226 47.9307C25.1503 52.033 21.9156 55.2782 17.8164 56.1642C17.7436 56.1797 17.6706 56.1914 17.5977 56.206ZM22.3028 56.4073C22.3826 56.3567 22.4545 56.2936 22.5332 56.2411C22.7306 56.1098 22.9183 55.9668 23.1071 55.8248C23.2714 55.7023 23.4445 55.5963 23.6031 55.465C24.2265 54.9515 24.8032 54.3748 25.3167 53.7524C26.3671 52.4794 27.148 51.038 27.6362 49.4674C27.751 49.0969 27.8434 48.7195 27.9231 48.3402C27.9426 48.2517 27.9572 48.1622 27.9737 48.0727C28.0291 47.7799 28.0748 47.4863 28.1089 47.1897C28.1215 47.0837 28.1351 46.9777 28.1449 46.8707C28.1799 46.4856 28.2043 46.0986 28.2043 45.7095V28.2037V8.75276C28.2043 8.57086 28.1527 8.39193 28.0554 8.23727L26.5548 5.83513H31.7977L30.2971 8.23727C30.1999 8.39193 30.1493 8.57086 30.1493 8.75276V28.2036V45.7093C30.1493 46.0983 30.1726 46.4855 30.2076 46.8706C30.2173 46.9776 30.231 47.0836 30.2436 47.1896C30.2786 47.4862 30.3234 47.7809 30.3788 48.0737C30.3963 48.1622 30.4109 48.2517 30.4294 48.3392C30.5101 48.7194 30.6015 49.0968 30.7173 49.4683C31.2055 51.038 31.9855 52.4793 33.0359 53.7523C33.5503 54.3747 34.127 54.9515 34.7495 55.4649C34.9081 55.5962 35.0821 55.7022 35.2455 55.8247C35.4352 55.9667 35.6229 56.1096 35.8194 56.2409C35.8981 56.2935 35.9701 56.3567 36.0498 56.4072H22.3028V56.4073ZM49.6 46.6819H49.4561L45.6972 23.1872C45.6175 22.6863 45.1594 22.3343 44.6604 22.3713C44.1537 22.4121 43.7648 22.8343 43.7648 23.341V55.4348C43.7648 55.6897 43.6646 55.9299 43.4837 56.1108C43.2921 56.3004 43.0364 56.4045 42.7611 56.4064C42.7271 56.4064 42.695 56.4035 42.661 56.4026C42.3653 56.3987 42.0736 56.3822 41.7837 56.3549C41.6894 56.3461 41.596 56.3345 41.5027 56.3228C41.2508 56.2926 41.0018 56.2537 40.7548 56.2061C40.6819 56.1915 40.6089 56.1799 40.536 56.1642C36.4367 55.2773 33.2021 52.0319 32.3297 47.9297C32.3151 47.8597 32.3035 47.7896 32.2898 47.7186C32.2422 47.4687 32.2042 47.2149 32.1742 46.9581C32.1634 46.8696 32.1518 46.7821 32.144 46.6936C32.1138 46.3688 32.0944 46.042 32.0944 45.7093V37.929H33.0669C33.0669 38.4668 33.5016 38.9015 34.0394 38.9015C34.5762 38.9015 35.0119 38.4668 35.0119 37.929V35.9839C35.0119 35.446 34.5762 35.0114 34.0394 35.0114C33.5016 35.0114 33.0669 35.446 33.0669 35.9839H32.0944V32.0937H33.0669C33.0669 32.6316 33.5016 33.0662 34.0394 33.0662C34.5762 33.0662 35.0119 32.6316 35.0119 32.0937V30.1486C35.0119 29.6108 34.5762 29.1761 34.0394 29.1761C33.5016 29.1761 33.0669 29.6108 33.0669 30.1486H32.0944V28.3912L35.9145 18.839C35.9407 18.7748 35.9593 18.7077 35.9709 18.6377L36.8832 13.1701L41.4551 9.51236C41.8392 9.20407 41.9335 8.65656 41.6709 8.23738L38.4761 3.12471L47.6812 7.15205C49.5475 7.96899 50.8371 9.65824 51.1318 11.6735L56.2542 46.6819H49.6Z"/>
</mask>
<path d="M58.3423 47.5144L53.0555 11.3923C52.6645 8.70808 50.946 6.45661 48.4602 5.37036L36.3735 0.0816023C36.3559 0.0738523 36.3375 0.0747641 36.32 0.0680399C36.2607 0.0457018 36.2004 0.0311137 36.1372 0.0204006C36.1032 0.0154999 36.0701 0.00877566 36.0351 0.00683817C36.0176 0.00581245 36.0021 0 35.9845 0H22.3689C22.3513 0 22.3348 0.00581245 22.3174 0.00683817C22.2843 0.00877566 22.2522 0.0156138 22.2191 0.0204006C22.155 0.030088 22.0927 0.0457018 22.0325 0.0680399C22.0149 0.0748781 21.9964 0.0748781 21.979 0.0816023L9.89309 5.37025C7.40627 6.45661 5.68784 8.70796 5.29692 11.3922L0.0102139 47.5144C-0.0305873 47.7935 0.0520407 48.0775 0.236786 48.2905C0.362266 48.4364 0.533449 48.5201 0.714318 48.5707L0.67158 48.7408C0.443071 49.655 0.645367 50.6051 1.22399 51.3482C1.80455 52.0912 2.6779 52.5172 3.6194 52.5172H6.16742C7.56401 52.5172 8.77676 51.5709 9.11525 50.2142L9.51209 48.6271H9.72601C10.2035 48.6271 10.611 48.2808 10.6859 47.8082L12.6436 35.5746V55.4347C12.6436 56.2109 12.9461 56.9403 13.4975 57.4887C14.0392 58.0284 14.757 58.327 15.5263 58.3455C15.5379 58.3455 15.5486 58.3523 15.5613 58.3523H15.5992H15.6099H42.7438H42.7554H42.7924C42.804 58.3523 42.8138 58.3465 42.8264 58.3455C43.5947 58.328 44.3134 58.0284 44.8561 57.4887C45.4066 56.9401 45.71 56.2107 45.71 55.4347V35.5745L47.6667 47.8081C47.7426 48.2807 48.1492 48.627 48.6276 48.627H48.8406L49.2579 50.293C49.5846 51.6029 50.7555 52.5172 52.1055 52.5172H54.8665C55.7759 52.5172 56.6191 52.1058 57.1802 51.3881C57.7404 50.6714 57.9349 49.7523 57.7132 48.8702L57.6393 48.5707C57.8202 48.5201 57.9905 48.4364 58.1168 48.2905C58.3005 48.0775 58.3831 47.7935 58.3423 47.5144ZM34.229 1.94501L33.0133 3.89013H25.3389L24.1232 1.94501H34.229ZM17.5977 56.206C17.3516 56.2536 17.1026 56.2925 16.8507 56.3227C16.7563 56.3343 16.663 56.346 16.5697 56.3548C16.2798 56.382 15.9872 56.3986 15.6914 56.4024C15.6584 56.4033 15.6253 56.4063 15.5923 56.4063C15.317 56.4044 15.0602 56.3003 14.8697 56.1107C14.6878 55.9298 14.5886 55.6896 14.5886 55.4347V23.3409C14.5886 22.8342 14.1986 22.4121 13.693 22.3712C13.6667 22.3693 13.6404 22.3683 13.6151 22.3683C13.1415 22.3683 12.7321 22.7126 12.6553 23.1871L8.89631 46.6819H8.7534H2.09825L7.22062 11.6733C7.51534 9.65824 8.80491 7.96899 10.6712 7.15194L19.8763 3.12471L16.6815 8.23738C16.4199 8.65656 16.5132 9.20407 16.8984 9.51236L21.4702 13.1701L22.3815 18.6377C22.3932 18.7077 22.4127 18.7748 22.438 18.839L26.259 28.3912V30.1486H25.2865C25.2865 29.6108 24.8508 29.1761 24.314 29.1761C23.7762 29.1761 23.3415 29.6108 23.3415 30.1486V32.0937C23.3415 32.6316 23.7762 33.0662 24.314 33.0662C24.8508 33.0662 25.2865 32.6316 25.2865 32.0937H26.259V35.9839H25.2865C25.2865 35.446 24.8508 35.0114 24.314 35.0114C23.7762 35.0114 23.3415 35.446 23.3415 35.9839V37.929C23.3415 38.4668 23.7762 38.9015 24.314 38.9015C24.8508 38.9015 25.2865 38.4668 25.2865 37.929H26.259V45.7093C26.259 46.0419 26.2386 46.3688 26.2084 46.6936C26.2007 46.7821 26.1889 46.8706 26.1792 46.9581C26.149 47.2139 26.1112 47.4677 26.0625 47.7177C26.0499 47.7887 26.0372 47.8597 26.0226 47.9307C25.1503 52.033 21.9156 55.2782 17.8164 56.1642C17.7436 56.1797 17.6706 56.1914 17.5977 56.206ZM22.3028 56.4073C22.3826 56.3567 22.4545 56.2936 22.5332 56.2411C22.7306 56.1098 22.9183 55.9668 23.1071 55.8248C23.2714 55.7023 23.4445 55.5963 23.6031 55.465C24.2265 54.9515 24.8032 54.3748 25.3167 53.7524C26.3671 52.4794 27.148 51.038 27.6362 49.4674C27.751 49.0969 27.8434 48.7195 27.9231 48.3402C27.9426 48.2517 27.9572 48.1622 27.9737 48.0727C28.0291 47.7799 28.0748 47.4863 28.1089 47.1897C28.1215 47.0837 28.1351 46.9777 28.1449 46.8707C28.1799 46.4856 28.2043 46.0986 28.2043 45.7095V28.2037V8.75276C28.2043 8.57086 28.1527 8.39193 28.0554 8.23727L26.5548 5.83513H31.7977L30.2971 8.23727C30.1999 8.39193 30.1493 8.57086 30.1493 8.75276V28.2036V45.7093C30.1493 46.0983 30.1726 46.4855 30.2076 46.8706C30.2173 46.9776 30.231 47.0836 30.2436 47.1896C30.2786 47.4862 30.3234 47.7809 30.3788 48.0737C30.3963 48.1622 30.4109 48.2517 30.4294 48.3392C30.5101 48.7194 30.6015 49.0968 30.7173 49.4683C31.2055 51.038 31.9855 52.4793 33.0359 53.7523C33.5503 54.3747 34.127 54.9515 34.7495 55.4649C34.9081 55.5962 35.0821 55.7022 35.2455 55.8247C35.4352 55.9667 35.6229 56.1096 35.8194 56.2409C35.8981 56.2935 35.9701 56.3567 36.0498 56.4072H22.3028V56.4073ZM49.6 46.6819H49.4561L45.6972 23.1872C45.6175 22.6863 45.1594 22.3343 44.6604 22.3713C44.1537 22.4121 43.7648 22.8343 43.7648 23.341V55.4348C43.7648 55.6897 43.6646 55.9299 43.4837 56.1108C43.2921 56.3004 43.0364 56.4045 42.7611 56.4064C42.7271 56.4064 42.695 56.4035 42.661 56.4026C42.3653 56.3987 42.0736 56.3822 41.7837 56.3549C41.6894 56.3461 41.596 56.3345 41.5027 56.3228C41.2508 56.2926 41.0018 56.2537 40.7548 56.2061C40.6819 56.1915 40.6089 56.1799 40.536 56.1642C36.4367 55.2773 33.2021 52.0319 32.3297 47.9297C32.3151 47.8597 32.3035 47.7896 32.2898 47.7186C32.2422 47.4687 32.2042 47.2149 32.1742 46.9581C32.1634 46.8696 32.1518 46.7821 32.144 46.6936C32.1138 46.3688 32.0944 46.042 32.0944 45.7093V37.929H33.0669C33.0669 38.4668 33.5016 38.9015 34.0394 38.9015C34.5762 38.9015 35.0119 38.4668 35.0119 37.929V35.9839C35.0119 35.446 34.5762 35.0114 34.0394 35.0114C33.5016 35.0114 33.0669 35.446 33.0669 35.9839H32.0944V32.0937H33.0669C33.0669 32.6316 33.5016 33.0662 34.0394 33.0662C34.5762 33.0662 35.0119 32.6316 35.0119 32.0937V30.1486C35.0119 29.6108 34.5762 29.1761 34.0394 29.1761C33.5016 29.1761 33.0669 29.6108 33.0669 30.1486H32.0944V28.3912L35.9145 18.839C35.9407 18.7748 35.9593 18.7077 35.9709 18.6377L36.8832 13.1701L41.4551 9.51236C41.8392 9.20407 41.9335 8.65656 41.6709 8.23738L38.4761 3.12471L47.6812 7.15205C49.5475 7.96899 50.8371 9.65824 51.1318 11.6735L56.2542 46.6819H49.6Z" fill="#E1B137" stroke="#A4A4A4" stroke-width="2" mask="url(#path-3-inside-1_1_210)"/>
<path d="M70.4894 55.7447C70.4894 68.5883 60.0776 79 47.234 79C34.3905 79 23.9787 68.5883 23.9787 55.7447C23.9787 42.9011 34.3905 32.4894 47.234 32.4894C60.0776 32.4894 70.4894 42.9011 70.4894 55.7447Z" fill="#A4A4A4" stroke="#ED2024" stroke-width="2"/>
<path d="M63.1815 39.7972C58.9219 35.5375 53.2583 33.1915 47.234 33.1915C41.2098 33.1915 35.5462 35.5375 31.2866 39.7972C27.0268 44.0569 24.6808 49.7205 24.6808 55.7447C24.6808 61.769 27.0268 67.4326 31.2866 71.6922C35.5462 75.9519 41.2098 78.2979 47.234 78.2979C53.2583 78.2979 58.9219 75.9519 63.1815 71.6922C67.4413 67.4326 69.7872 61.769 69.7872 55.7447C69.7872 49.7205 67.4413 44.0569 63.1815 39.7972ZM47.234 38.9609C48.103 38.9609 48.8075 39.6654 48.8075 40.5344C48.8075 41.4034 48.103 42.1078 47.234 42.1078C46.3651 42.1078 45.6606 41.4033 45.6606 40.5344C45.6606 39.6654 46.365 38.9609 47.234 38.9609ZM32.0238 57.3182C31.1548 57.3182 30.4503 56.6136 30.4503 55.7447C30.4503 54.8758 31.1548 54.1713 32.0238 54.1713C32.8928 54.1713 33.5972 54.8758 33.5972 55.7447C33.5972 56.6136 32.8928 57.3182 32.0238 57.3182ZM47.234 72.5285C46.365 72.5285 45.6606 71.824 45.6606 70.9551C45.6606 70.0861 46.3651 69.3816 47.234 69.3816C48.103 69.3816 48.8075 70.0862 48.8075 70.9551C48.8075 71.824 48.103 72.5285 47.234 72.5285ZM55.6259 57.3182H47.8858L38.3813 66.8227L36.1561 64.5975L45.6606 55.093V44.2059H48.8076V54.1713H55.6259V57.3182ZM62.4443 57.3182C61.5753 57.3182 60.8709 56.6136 60.8709 55.7447C60.8709 54.8758 61.5754 54.1713 62.4443 54.1713C63.3133 54.1713 64.0178 54.8758 64.0178 55.7447C64.0178 56.6136 63.3133 57.3182 62.4443 57.3182Z" fill="#FFF7E1"/>
</svg>
