<svg width="74" height="74" viewBox="0 0 74 74" fill="none" xmlns="http://www.w3.org/2000/svg">
<g clip-path="url(#clip0_1_393)">
<path d="M44.8111 59.3028L45.1195 56.3223C45.1195 49.8473 39.8778 44.5028 33.3 44.5028C26.825 44.5028 21.4806 49.7445 21.4806 56.3223L21.7889 59.3028C20.2472 59.5084 19.0139 60.7417 19.0139 62.3861C19.0139 64.1334 20.4528 65.4695 22.0972 65.4695H22.6111C23.8445 70.1973 28.1611 73.5889 33.3 73.5889C38.4389 73.5889 42.6528 70.0945 43.9889 65.4695H44.5028C46.25 65.4695 47.5861 64.0306 47.5861 62.3861C47.6889 60.8445 46.4556 59.5084 44.8111 59.3028Z" fill="#FFF7E1"/>
<path d="M30.525 21.8917L30.6278 21.3778C30.6278 13.5667 24.2556 7.19446 16.4444 7.19446C8.63333 7.19446 2.36389 13.5667 2.36389 21.3778L2.46667 21.8917C1.02778 22.0972 0 23.3306 0 24.7695C0 26.4139 1.33611 27.75 2.98056 27.75H3.08333L3.18611 28.7778C3.18611 36.075 9.14722 42.0361 16.4444 42.0361C23.7417 42.0361 29.7028 36.075 29.7028 28.7778L29.8056 27.6472H30.0111C31.6556 27.6472 32.9917 26.3111 32.9917 24.6667C32.9917 23.3306 31.9639 22.0972 30.525 21.8917Z" fill="#FFF7E1"/>
<path d="M70.9167 27.5445H70.5056L70.9167 20.8639C70.9167 13.3611 64.4417 9.55835 56.9389 9.55835C49.4361 9.55835 43.7833 13.4639 43.7833 20.8639L44.1945 27.5445H43.7833C42.0361 27.5445 40.7 28.9833 40.7 30.6278C40.7 32.375 42.1389 33.7111 43.7833 33.7111C44.0917 33.7111 44.4 33.6083 44.6056 33.6083C44.8111 40.4945 50.3611 45.9417 57.2472 45.9417C64.1333 45.9417 69.7861 40.3917 69.8889 33.6083C70.1972 33.7111 70.4028 33.7111 70.7111 33.7111C72.4583 33.7111 73.7945 32.2722 73.7945 30.6278C74 28.9833 72.5611 27.5445 70.9167 27.5445Z" fill="#FFF7E1"/>
<path d="M33.4028 64.9555C32.5806 64.9555 31.8611 64.5444 31.45 63.9277C31.3472 63.7222 31.3472 63.4139 31.5528 63.3111C31.7584 63.2083 32.0667 63.2083 32.1695 63.4139C32.375 63.825 32.7861 64.0305 33.3 64.0305C33.8139 64.0305 34.225 63.825 34.4306 63.4139C34.5334 63.2083 34.8417 63.1055 35.0472 63.3111C35.2528 63.4139 35.3556 63.7222 35.15 63.9277C34.9445 64.5444 34.225 64.9555 33.4028 64.9555Z" fill="#E5AB83"/>
<path d="M31.9639 72.7667C30.4222 72.7667 28.9833 72.4584 27.6472 72.0472C29.2917 73.075 31.2444 73.6917 33.4028 73.6917C39.4667 73.6917 44.4 68.8611 44.4 62.7972C43.1667 68.5528 38.0278 72.7667 31.9639 72.7667Z" fill="#EDC0A2"/>
<path d="M15.3139 40.7C12.3333 40.7 9.45556 39.775 7.09167 38.2334C9.45556 40.5972 12.7445 42.1389 16.4445 42.1389C23.7417 42.1389 29.7028 36.1778 29.7028 28.8806V28.1611C28.7778 35.2528 22.7139 40.7 15.3139 40.7Z" fill="#CE8E63"/>
<path d="M9.76391 20.35C9.76391 20.35 9.55836 20.2472 9.25002 20.2472C8.94169 20.1445 8.4278 20.1445 8.01669 20.1445H7.40002C7.29725 20.1445 7.19447 20.1445 7.19447 20.2472C7.09169 20.2472 7.09169 20.2472 6.98891 20.35C6.88614 20.35 6.88613 20.4528 6.88613 20.4528C6.88613 20.4528 6.78336 20.4528 6.78336 20.5556H6.37225C6.06391 20.6584 5.75558 20.5556 5.6528 20.35C5.55002 20.1445 5.6528 19.8361 5.75558 19.7334C5.75558 19.7334 5.85836 19.7334 5.96113 19.6306C6.06391 19.6306 6.06391 19.5278 6.16669 19.425C6.26947 19.425 6.37225 19.3222 6.47502 19.2195C6.68058 19.1167 6.88613 19.0139 7.19447 19.0139C7.40002 19.0139 7.70836 18.9111 8.01669 18.9111C8.53058 18.8083 9.04447 18.8083 9.45558 18.9111H10.175C10.5861 18.9111 10.8945 19.3222 10.8945 19.7334C10.8945 20.1445 10.4834 20.4528 10.0722 20.4528L9.76391 20.35ZM22.9195 18.8083C22.5084 18.8083 22.2 19.2195 22.2 19.6306C22.2 20.0417 22.6111 20.35 23.0222 20.35H23.125C23.125 20.35 23.3306 20.2472 23.6389 20.2472C23.9472 20.1445 24.4611 20.1445 24.8722 20.1445H25.4889C25.5917 20.1445 25.6945 20.1445 25.6945 20.2472C25.7972 20.2472 25.7972 20.2472 25.9 20.35C26.0028 20.35 26.0028 20.4528 26.0028 20.4528C26.0028 20.4528 26.1056 20.4528 26.1056 20.5556H26.2084L26.4139 20.6584C26.6195 20.7611 26.9278 20.6584 27.0306 20.5556C27.2361 20.35 27.1334 19.9389 26.9278 19.8361C26.9278 19.8361 26.825 19.8361 26.7222 19.7334C26.6195 19.7334 26.6195 19.6306 26.5167 19.5278C26.4139 19.5278 26.3111 19.425 26.2084 19.3222C26.0028 19.2195 25.7972 19.1167 25.4889 19.1167C25.2834 19.1167 24.975 19.0139 24.6667 19.0139C24.1528 18.9111 23.6389 18.9111 23.2278 19.0139H22.7139C23.0222 18.8084 22.9195 18.8083 22.9195 18.8083Z" fill="#D6D6D6"/>
<path d="M16.4444 30.4222C15.5194 30.4222 14.5944 29.9083 14.1833 29.1889C13.9778 28.8805 14.0805 28.5722 14.3889 28.4694C14.6972 28.2639 15.0055 28.3667 15.1083 28.675C15.4166 29.0861 15.9305 29.3944 16.4444 29.3944C16.9583 29.3944 17.4722 29.0861 17.7805 28.675C17.9861 28.3667 18.2944 28.3667 18.5 28.4694C18.8083 28.675 18.8083 28.9833 18.7055 29.1889C18.2944 30.0111 17.3694 30.4222 16.4444 30.4222ZM19.0139 35.3555C19.2194 35.15 19.3222 34.8416 19.1166 34.5333C18.9111 34.3278 18.6028 34.225 18.2944 34.4305C17.1639 35.3555 15.6222 35.3555 14.4916 34.4305C14.2861 34.225 13.875 34.3278 13.6694 34.5333C13.4639 34.7389 13.5666 35.15 13.7722 35.3555C14.4916 35.9722 15.4166 36.2805 16.3416 36.2805C17.3694 36.2805 18.2944 35.9722 19.0139 35.3555Z" fill="#CE8E63"/>
<path d="M27.9555 60.0223V61.975C27.9555 62.7973 27.3389 63.4139 26.5166 63.4139C25.6944 63.4139 25.0778 62.7973 25.0778 61.975V60.0223C25.1805 59.3028 25.6944 58.6861 26.5166 58.6861C27.2361 58.7889 27.8528 59.3028 27.9555 60.0223ZM41.625 60.0223C41.5222 59.3028 41.0083 58.6861 40.1861 58.6861C39.4666 58.6861 38.85 59.3028 38.7472 60.0223V61.975C38.7472 62.7973 39.3639 63.4139 40.1861 63.4139C41.0083 63.4139 41.625 62.7973 41.625 61.975V60.0223ZM38.2333 67.525C38.1305 67.3195 37.8222 67.1139 37.5139 67.1139H29.1889C28.8805 67.1139 28.675 67.2167 28.4694 67.525C28.3666 67.7306 28.3666 68.0389 28.4694 68.3473C28.9833 69.2723 29.7028 69.8889 30.6278 70.4028C31.3472 69.7861 32.2722 69.7861 33.3 69.7861C34.3278 69.7861 35.2528 69.7861 35.9722 70.4028C36.7944 69.8889 37.6166 69.2723 38.1305 68.3473C38.3361 68.0389 38.3361 67.8334 38.2333 67.525ZM9.45554 22.7139C9.35276 21.9945 8.83887 21.3778 8.01665 21.3778C7.2972 21.3778 6.68054 21.9945 6.57776 22.7139V24.6667C6.57776 25.4889 7.19443 26.1056 8.01665 26.1056C8.83887 26.1056 9.45554 25.4889 9.45554 24.6667V22.7139ZM26.3111 22.7139C26.2083 21.9945 25.6944 21.3778 24.8722 21.3778C24.1528 21.3778 23.5361 21.9945 23.4333 22.7139V24.6667C23.4333 25.4889 24.05 26.1056 24.8722 26.1056C25.6944 26.1056 26.3111 25.4889 26.3111 24.6667V22.7139ZM50.3611 27.5445C50.2583 26.825 49.7444 26.2084 48.9222 26.2084C48.2028 26.2084 47.5861 26.825 47.4833 27.5445V29.4973C47.4833 30.3195 48.1 30.9361 48.9222 30.9361C49.7444 30.9361 50.3611 30.3195 50.3611 29.4973V27.5445ZM67.0111 27.5445C66.9083 26.825 66.3944 26.2084 65.5722 26.2084C64.8528 26.2084 64.2361 26.825 64.1333 27.5445V29.4973C64.1333 30.3195 64.75 30.9361 65.5722 30.9361C66.3944 30.9361 67.0111 30.3195 67.0111 29.4973V27.5445Z" fill="#2B3B47"/>
<path d="M48.8195 27.5444V28.0583C48.8195 28.2639 48.7167 28.3666 48.5111 28.3666C48.3056 28.3666 48.2028 28.2639 48.2028 28.0583V27.5444C48.2028 27.3389 48.4083 27.2361 48.5111 27.2361C48.7167 27.2361 48.8195 27.3389 48.8195 27.5444ZM26.2083 60.125C26.2083 59.9194 26.0028 59.8166 25.9 59.8166C25.6945 59.8166 25.5917 59.9194 25.5917 60.125V60.6389C25.5917 60.8444 25.7972 60.9472 25.9 60.9472C26.1056 60.9472 26.2083 60.7416 26.2083 60.6389V60.125ZM40.0833 60.125C40.0833 59.9194 39.8778 59.8166 39.775 59.8166C39.5695 59.8166 39.4667 59.9194 39.4667 60.125V60.6389C39.4667 60.8444 39.6722 60.9472 39.775 60.9472C39.9806 60.9472 40.0833 60.7416 40.0833 60.6389V60.125ZM7.70834 22.8166C7.70834 22.6111 7.50279 22.5083 7.40001 22.5083C7.19445 22.5083 7.09167 22.6111 7.09167 22.8166V23.3305C7.09167 23.4333 7.19445 23.6389 7.40001 23.6389C7.60556 23.6389 7.70834 23.4333 7.70834 23.3305V22.8166ZM24.6667 22.8166C24.6667 22.6111 24.4611 22.5083 24.3583 22.5083C24.1528 22.5083 24.05 22.6111 24.05 22.8166V23.3305C24.05 23.5361 24.2556 23.6389 24.3583 23.6389C24.5639 23.6389 24.6667 23.4333 24.6667 23.3305V22.8166ZM65.4695 27.5444C65.4695 27.3389 65.2639 27.2361 65.1611 27.2361C64.9556 27.2361 64.8528 27.3389 64.8528 27.5444V28.0583C64.8528 28.2639 64.9556 28.3666 65.1611 28.3666C65.3667 28.3666 65.4695 28.2639 65.4695 28.0583V27.5444Z" fill="#959DA3"/>
<path d="M56.2194 44.8111C53.3417 44.8111 50.6694 43.8861 48.4083 42.4472C50.6694 44.7084 53.8555 46.1472 57.35 46.1472C64.3389 46.1472 70.0944 40.4945 70.0944 33.4028V32.7861C69.0667 39.5695 63.3111 44.8111 56.2194 44.8111Z" fill="#EDC0A2"/>
<path d="M36.075 70.4028C35.2528 70.8139 34.3278 71.1222 33.4028 71.1222C32.375 71.1222 31.45 70.9167 30.7305 70.4028C31.45 69.7861 32.375 69.7861 33.4028 69.7861C34.4305 69.7861 35.3555 69.7861 36.075 70.4028ZM60.8444 39.0556C60.0222 38.7472 59.2 38.2333 58.275 38.2333C57.7611 38.2333 57.35 38.5417 57.2472 38.5417C57.1444 38.5417 56.6305 38.2333 56.1166 38.2333C55.2944 38.2333 54.575 38.6444 53.7527 39.0556C53.3416 39.2611 53.0333 39.2611 52.725 39.2611C52.5194 39.2611 52.4166 39.4667 52.5194 39.5694C53.1361 40.3917 54.6778 41.9333 57.2472 41.9333C59.8166 41.9333 61.4611 40.2889 61.975 39.4667C62.0777 39.3639 61.975 39.1583 61.7694 39.1583C61.6666 39.1583 61.3583 39.1583 60.8444 39.0556Z" fill="#FF7DDA"/>
<path d="M57.35 35.5611C56.425 35.5611 55.5 35.0472 54.9861 34.3278C54.7806 34.0195 54.8833 33.7111 55.1917 33.5056C55.5 33.3 55.8083 33.4028 56.0139 33.7111C56.3222 34.1222 56.8361 34.4306 57.35 34.4306C57.8639 34.4306 58.3778 34.1222 58.6861 33.7111C58.8917 33.4028 59.2 33.4028 59.5083 33.5056C59.8167 33.7111 59.8167 34.0195 59.7139 34.3278C59.2 35.0472 58.275 35.5611 57.35 35.5611ZM63.6194 24.05C63.4139 24.1528 63.3111 24.4611 63.5167 24.6667C63.6194 24.8722 63.9278 24.975 64.1333 24.7695C64.1333 24.7695 64.2361 24.7695 64.2361 24.6667C64.3389 24.5639 64.4417 24.4611 64.6472 24.4611C64.75 24.3583 64.9556 24.3583 65.1611 24.2556C65.2639 24.2556 65.3667 24.2556 65.4694 24.1528H66.0861C66.1889 24.1528 66.2917 24.2556 66.3944 24.2556C66.6 24.2556 66.7028 24.4611 66.9083 24.5639C67.0111 24.5639 67.0111 24.6667 67.1139 24.7695L67.2167 24.8722L67.3194 24.975C67.4222 25.0778 67.525 25.0778 67.6278 24.975C67.7306 24.8722 67.7306 24.7695 67.7306 24.6667C67.7306 24.6667 67.7306 24.5639 67.6278 24.4611C67.6278 24.4611 67.525 24.3583 67.525 24.2556C67.4222 24.1528 67.4222 24.05 67.3194 24.05C67.1139 23.9472 66.9083 23.7417 66.7028 23.6389C66.6 23.6389 66.4972 23.5361 66.2917 23.4333L65.8806 23.3306H65.0583C64.75 23.3306 64.5444 23.4333 64.3389 23.5361C64.1333 23.6389 64.0306 23.7417 63.825 23.7417C63.7222 23.9472 63.6194 23.9472 63.6194 24.05C63.6194 24.05 63.6194 23.9472 63.6194 24.05ZM50.5667 24.7695C50.7722 24.8722 51.0806 24.8722 51.1833 24.5639C51.2861 24.3583 51.2861 24.05 50.9778 23.9472C50.9778 23.9472 50.875 23.9472 50.7722 23.8445C50.6694 23.7417 50.4639 23.6389 50.2583 23.6389C49.8472 23.5361 49.2306 23.4333 48.7167 23.4333C48.1 23.5361 47.5861 23.7417 47.2778 24.1528C47.0722 24.2556 46.9694 24.4611 46.9694 24.5639C46.8667 24.6667 46.8667 24.7695 46.8667 24.7695C46.7639 24.8722 46.8667 25.0778 46.9694 25.0778C47.0722 25.1806 47.2778 25.0778 47.2778 24.975C47.2778 24.975 47.3806 24.7695 47.6889 24.5639C47.9972 24.3583 48.4083 24.1528 48.8194 24.1528C49.2306 24.1528 49.7444 24.2556 50.0528 24.3583C50.2583 24.4611 50.2583 24.4611 50.3611 24.5639C50.4639 24.7695 50.5667 24.7695 50.5667 24.7695Z" fill="#E5AB83"/>
<path d="M39.3639 43.9889C38.7472 43.6805 36.075 42.8583 35.4584 42.7555C34.8417 42.6528 34.1222 42.6528 33.4028 42.6528C24.975 42.6528 21.275 49.025 21.275 53.8556V59.9194C22.9195 59.9194 23.8445 58.6861 24.4611 55.0889C24.8722 52.2111 28.4695 49.1278 28.4695 49.1278L32.5806 51.8C32.8889 52.0056 33.3 51.8 33.3 51.3889V50.6694C34.8417 51.3889 37.925 52.8278 39.0556 53.0333C39.8778 53.1361 41.7278 53.2389 42.55 55.3972C43.5778 58.1722 43.7834 59.5083 45.4278 59.5083V53.8556C45.5306 50.3611 43.5778 46.0444 39.3639 43.9889Z" fill="#D6D6D6"/>
<path d="M19.1167 3.08332H14.8C4.83054 2.98055 2.05554 9.6611 2.05554 15.8278V21.9944C2.05554 23.125 2.87776 24.05 3.39165 22.5083C4.21388 20.1444 4.52221 10.175 8.01665 13.1555C10.5861 15.3139 24.2555 14.8 23.0222 13.3611C22.7139 12.95 22.3028 12.4361 21.8917 12.025C27.8528 15.0055 28.9833 21.3778 29.3944 22.0972C30.2167 23.5361 30.525 23.2278 30.525 21.8917V16.2389C30.6278 10.8944 28.3667 3.49444 19.1167 3.08332Z" fill="#E1B137"/>
<path d="M73.8972 20.35C73.8972 16.1361 69.9917 9.86667 64.75 7.19444C64.5444 7.09167 64.0306 6.88611 63.5167 6.68056V6.26944C63.5167 2.775 60.7417 0 57.2472 0C53.7528 0 50.9778 2.775 50.9778 6.26944V6.88611C50.5667 6.88611 50.2583 6.98889 49.95 7.09167C44.4 9.55833 41.5222 14.6972 41.5222 19.1167C41.5222 21.4806 41.9333 24.2556 42.55 26.0028V29.1889C42.55 29.9083 43.2694 30.6278 44.4 31.2444L44.1944 27.2361C44.4 26.5167 44.5028 25.2833 44.5028 23.3306C44.5028 18.2944 48.7167 15.725 51.1833 14.4917C51.8 14.1833 52.5194 14.1833 53.1361 14.5944C58.0694 18.2944 67.0111 22.4056 70.6083 23.9472L70.1972 29.3944C72.4583 27.4417 73.8972 24.6667 73.8972 20.9667C74 20.7611 74 20.5556 73.8972 20.35Z" fill="#ED2024"/>
</g>
<defs>
<clipPath id="clip0_1_393">
<rect width="74" height="74" fill="white"/>
</clipPath>
</defs>
</svg>
