<svg width="68" height="68" viewBox="0 0 68 68" fill="none" xmlns="http://www.w3.org/2000/svg">
<path d="M11.3824 8.13532C10.8617 7.58919 9.99641 7.56874 9.45015 8.08976C8.90389 8.61079 8.88357 9.4758 9.4046 10.0221L18.0261 19.0592C18.2947 19.3407 18.6546 19.4824 19.0152 19.4824C19.3541 19.4824 19.6937 19.3571 19.9584 19.1047C20.5046 18.5837 20.525 17.7187 20.004 17.1724L11.3824 8.13532Z" fill="#A4A4A4"/>
<path d="M66.2871 65.6869L58.9973 58.0916C58.4748 57.5473 57.6096 57.5293 57.065 58.0519C56.5204 58.5745 56.5027 59.4397 57.0253 59.9842L64.3151 67.5795C64.5835 67.8591 64.942 67.9998 65.3012 67.9998C65.6416 67.9998 65.9824 67.8735 66.2474 67.6192C66.7921 67.0968 66.8097 66.2316 66.2871 65.6869Z" fill="#A4A4A4"/>
<path d="M6.63319 10.6346C9.56985 10.6346 11.9505 8.25395 11.9505 5.31729C11.9505 2.38063 9.56985 0 6.63319 0C3.69653 0 1.3159 2.38063 1.3159 5.31729C1.3159 8.25395 3.69653 10.6346 6.63319 10.6346Z" fill="#E1B137"/>
<path d="M10.3937 1.55763C10.3099 1.47383 10.2231 1.39454 10.1352 1.3175C10.2808 2.84259 9.76944 4.41842 8.60175 5.58611C6.60876 7.57923 3.42829 7.65852 1.33928 5.82623C1.45244 7.01345 1.96376 8.16958 2.87274 9.07869C4.94953 11.1556 8.31686 11.1556 10.3938 9.07869C12.4707 7.00176 12.4707 3.63442 10.3937 1.55763Z" fill="#FFF7E1"/>
<path d="M38.4213 66.9287C54.0304 66.9287 66.6841 54.275 66.6841 38.6659C66.6841 23.0568 54.0304 10.4031 38.4213 10.4031C22.8121 10.4031 10.1584 23.0568 10.1584 38.6659C10.1584 54.275 22.8121 66.9287 38.4213 66.9287Z" fill="#FFF7E1"/>
<path d="M58.9973 58.0919C58.4748 57.5477 57.6097 57.5296 57.065 58.0522C56.5205 58.5748 56.5027 59.44 57.0253 59.9845L59.3049 62.3596C59.9643 61.8101 60.6058 61.228 61.2246 60.6094C61.2568 60.5771 61.2878 60.5439 61.3199 60.5118L58.9973 58.0919Z" fill="#BCBEC0"/>
<path d="M58.406 18.6804C58.1963 18.4707 57.983 18.2661 57.7684 18.0643C64.417 28.9467 63.0354 43.3521 53.6197 52.7678C42.792 63.5957 25.3652 63.8002 14.2865 53.384C15.4318 55.2585 16.8133 57.0291 18.4352 58.6509C29.4729 69.6886 47.3683 69.6886 58.406 58.6509C69.4434 47.6136 69.4434 29.7181 58.406 18.6804Z" fill="#FFF7E1"/>
<path d="M63.7602 37.3641C62.7058 31.3532 59.8595 25.8873 55.5291 21.557C51.6017 17.6297 46.6794 14.8944 41.2944 13.646C40.5606 13.4761 39.825 13.9334 39.6544 14.6688C39.484 15.404 39.942 16.1382 40.6772 16.3087C45.5635 17.4412 50.031 19.9246 53.5963 23.4898C57.5272 27.4206 60.1109 32.3817 61.068 37.8362C61.1844 38.4999 61.7611 38.9669 62.4124 38.9669C62.4908 38.9669 62.5702 38.9601 62.6502 38.9461C63.3938 38.8158 63.8908 38.1076 63.7602 37.3641Z" fill="#D6D6D6"/>
<path d="M29.1179 16.7654C28.3642 16.8065 27.7864 17.4506 27.8273 18.2043C27.8685 18.9581 28.5129 19.5355 29.2662 19.4949C36.8887 19.0794 44.3581 21.9372 49.7538 27.333C54.9752 32.5544 57.7713 39.497 57.6264 46.8818C57.6116 47.6366 58.2116 48.2601 58.9661 48.2751C58.9754 48.2753 58.9845 48.2753 58.9934 48.2753C59.7356 48.2753 60.3447 47.6808 60.3594 46.9353C60.5189 38.8 57.4387 31.1519 51.6867 25.3997C45.7427 19.4562 37.5191 16.3111 29.1179 16.7654Z" fill="#D6D6D6"/>
<path d="M47.8434 29.2427C46.7179 28.1172 45.5187 27.0943 44.2552 26.1766C44.1552 26.0795 44.042 25.9989 43.9196 25.9371C40.1029 23.2452 35.7177 21.5077 31.0102 20.8501C25.5155 20.0834 19.8373 20.8961 14.7967 23.1399C14.0807 24.2267 13.4493 25.3527 12.8992 26.5078C13.2838 26.7013 13.7534 26.7114 14.1616 26.4921C19.146 23.8128 24.9955 22.7704 30.6322 23.5572C34.1863 24.0534 37.5383 25.2291 40.5596 27.0167C38.1758 28.3495 35.9844 30.0075 34.024 31.9677C29.4868 36.5051 26.591 42.2254 25.6497 48.5103C24.8115 54.1084 25.6428 59.8856 27.9892 64.9395C29.0268 65.3509 30.0835 65.6988 31.1539 65.9825C31.2494 65.6534 31.2228 65.2884 31.0495 64.9617C28.4853 60.1252 27.5274 54.4265 28.3527 48.9148C29.2066 43.2128 31.8359 38.0209 35.9565 33.9003C38.0738 31.7832 40.4858 30.0542 43.1347 28.7499C44.1054 29.4889 45.0328 30.2976 45.9103 31.1751C50.081 35.3457 52.7152 40.6286 53.5285 46.4531C54.3155 52.0898 53.2736 57.939 50.594 62.9237C50.3745 63.3321 50.3848 63.8016 50.5787 64.1864C51.7336 63.6363 52.8593 63.0049 53.9462 62.289C56.19 57.2484 57.0031 51.5696 56.2358 46.0752C55.3398 39.6577 52.4377 33.8371 47.8434 29.2427Z" fill="#D6D6D6"/>
<path d="M19.1901 26.1215C18.5545 25.7143 17.7092 25.8994 17.3023 26.5353C15.2866 29.6825 13.9026 33.1444 13.1884 36.8246C13.0446 37.5656 13.5287 38.2828 14.2698 38.4265C14.3576 38.4436 14.4452 38.4518 14.5317 38.4518C15.1732 38.4518 15.7451 37.9984 15.8718 37.3454C16.5202 34.0058 17.7756 30.8648 19.6041 28.0097C20.011 27.3738 19.8257 26.5286 19.1901 26.1215Z" fill="#D6D6D6"/>
<path d="M26.0684 26.3703C25.5089 25.8635 24.6445 25.906 24.1381 26.4658C19.1929 31.9259 16.4756 38.9987 16.4866 46.3815C16.4876 47.1357 17.0992 47.7461 17.8532 47.7461C17.8537 47.7461 17.8547 47.7461 17.8552 47.7461C18.6101 47.7451 19.2209 47.1323 19.2199 46.3775C19.21 39.6758 21.6761 33.2559 26.1638 28.3005C26.6708 27.7412 26.6279 26.8769 26.0684 26.3703Z" fill="#D6D6D6"/>
<path d="M30.9409 31.1625C31.3429 30.7604 31.7622 30.3666 32.187 29.9915C32.7531 29.4923 32.807 28.6287 32.3076 28.0625C31.8084 27.4969 30.9448 27.4428 30.3787 27.942C29.9113 28.3543 29.45 28.7877 29.008 29.2296C23.1465 35.0913 19.9938 43.2055 20.3583 51.4919C20.3907 52.2253 20.9956 52.7984 21.7226 52.7984C21.7428 52.7984 21.7634 52.798 21.7838 52.7971C22.5378 52.7637 23.1223 52.1256 23.0891 51.3716C22.7579 43.8492 25.6197 36.4834 30.9409 31.1625Z" fill="#D6D6D6"/>
<path d="M29.8048 52.7622C29.4745 53.4412 29.7571 54.259 30.4358 54.5891C33.5813 56.1192 36.9542 56.8766 40.2692 56.8766C44.3463 56.8766 48.3352 55.7304 51.7009 53.4661C52.3273 53.0448 52.4934 52.1956 52.0719 51.5694C51.6507 50.9431 50.801 50.7765 50.1752 51.1985C44.8787 54.7617 37.7727 55.1188 31.6315 52.1312C30.9527 51.8005 30.1349 52.0837 29.8048 52.7622Z" fill="#ED2024"/>
<path d="M30.9889 60.6668C33.3793 61.8301 36.0733 62.4067 38.9277 62.4067C42.7802 62.4067 46.9243 61.356 51.0047 59.2796C51.6773 58.9372 51.9452 58.1143 51.6029 57.4417C51.2605 56.7691 50.4376 56.5018 49.7651 56.8436C43.4319 60.0665 37.0241 60.5642 32.1849 58.2091C31.506 57.8795 30.6884 58.1615 30.3579 58.84C30.0279 59.5187 30.3103 60.3365 30.9889 60.6668Z" fill="#ED2024"/>
<path d="M30.7998 45.9817C30.4517 46.6516 30.7125 47.4765 31.3823 47.8245C31.4308 47.8496 31.6704 47.9683 31.8603 48.062L32.0713 48.1664C35.0812 49.6824 38.3481 50.4385 41.6029 50.4385C45.0473 50.4385 48.478 49.5912 51.5709 47.9013C52.2333 47.5394 52.4767 46.709 52.1148 46.0464C51.7527 45.3842 50.9227 45.1408 50.2599 45.5024C45.0332 48.3585 38.6933 48.4417 33.2997 45.7246L33.0701 45.6111C32.9028 45.5284 32.6925 45.425 32.6424 45.3991C31.9727 45.051 31.1478 45.3118 30.7998 45.9817Z" fill="#ED2024"/>
<path d="M32.3963 40.9048C32.0765 41.5887 32.3715 42.4022 33.0552 42.722C35.8872 44.0464 38.9553 44.7121 42.0184 44.7121C44.6693 44.7121 47.3165 44.2135 49.804 43.2118C50.5043 42.9297 50.8433 42.1336 50.5612 41.4334C50.2792 40.7334 49.4832 40.3935 48.7828 40.6763C44.1223 42.5537 38.8116 42.3966 34.2131 40.2461C33.5292 39.9263 32.7162 40.2212 32.3963 40.9048Z" fill="#ED2024"/>
<path d="M42.5426 38.4521C43.7388 38.4521 44.9534 38.2895 46.1617 37.9636C46.8905 37.767 47.3217 37.0168 47.1252 36.288C46.9287 35.5593 46.1789 35.1278 45.4496 35.3246C43.2028 35.9309 40.9434 35.8349 38.916 35.0465C38.2128 34.7728 37.4205 35.1214 37.1469 35.8249C36.8735 36.5283 37.222 37.3204 37.9253 37.594C39.3943 38.1653 40.9526 38.4521 42.5426 38.4521Z" fill="#ED2024"/>
</svg>
