<svg width="64" height="64" viewBox="0 0 64 64" fill="none" xmlns="http://www.w3.org/2000/svg">
<path d="M18.1334 10.6667C17.4934 10.6667 17.0668 10.24 17.0668 9.60005V3.20005C17.0668 2.56005 17.4934 2.13342 18.1334 2.13342C18.7734 2.13342 19.2 2.56005 19.2 3.20005V9.60005C19.2 10.24 18.7734 10.6667 18.1334 10.6667Z" fill="#FFF7E1"/>
<path d="M48 10.6667C47.36 10.6667 46.9333 10.24 46.9333 9.60005V3.20005C46.9333 2.56005 47.36 2.13342 48 2.13342C48.64 2.13342 49.0666 2.56005 49.0666 3.20005V9.60005C49.0666 10.24 48.64 10.6667 48 10.6667Z" fill="#FFF7E1"/>
<path d="M22.4 4.26667H18.1334C17.4934 4.26667 17.0668 3.84005 17.0668 3.20005C17.0668 2.56005 17.4934 2.13342 18.1334 2.13342H22.4C23.04 2.13342 23.4666 2.56005 23.4666 3.20005C23.4666 3.84005 23.04 4.26667 22.4 4.26667Z" fill="#FFF7E1"/>
<path d="M48 4.26667H43.7334C43.0934 4.26667 42.6667 3.84005 42.6667 3.20005C42.6667 2.56005 43.0934 2.13342 43.7334 2.13342H48C48.64 2.13342 49.0666 2.56005 49.0666 3.20005C49.0666 3.84005 48.64 4.26667 48 4.26667Z" fill="#FFF7E1"/>
<path d="M13.8666 44.8001C13.2266 44.8001 12.8 44.3734 12.8 43.7334V36.2668C12.8 35.6268 13.2266 35.2002 13.8666 35.2002C14.5066 35.2002 14.9332 35.6268 14.9332 36.2668V43.7334C14.9334 44.3734 14.5066 44.8001 13.8666 44.8001Z" fill="#FFF7E1"/>
<path d="M16 41.6001H11.7334C11.0934 41.6001 10.6667 41.1734 10.6667 40.5334C10.6667 39.8934 11.0934 39.4668 11.7334 39.4668H16C16.64 39.4668 17.0666 39.8934 17.0666 40.5334C17.0666 41.1734 16.64 41.6001 16 41.6001Z" fill="#FFF7E1"/>
<path d="M42.0266 5.3334H21.9734C21.6534 5.3334 21.3334 5.0134 21.3334 4.6934V1.70665C21.3334 1.38665 21.6534 1.06665 21.9734 1.06665H41.92C42.3466 1.06665 42.6666 1.38665 42.6666 1.70665V4.58665C42.6666 5.0134 42.3466 5.3334 42.0266 5.3334Z" fill="#E1B137"/>
<path d="M58.9867 46.1866L56.5333 33.92C54.9333 25.8134 55.3599 20.6934 56.2133 12.48C56.3199 10.9866 55.1467 9.59998 53.6533 9.59998H1.06665V15.8934C1.06665 23.04 1.92003 26.9867 3.62665 33.92C4.05328 35.3066 5.22665 36.2666 6.72003 36.2666H19.3067C21.0133 36.2666 22.4 34.88 22.4 33.1732V23.4666H35.2V50.1332H1.06665V62.9332H57.1733C58.5599 62.9332 59.7333 61.7599 59.7333 60.3732V56.32C59.7334 52.9066 59.52 49.4934 58.9867 46.1866Z" fill="#FFF7E1"/>
<path d="M58.9867 46.1866L56.5333 33.92C54.9333 25.8134 55.3599 20.6934 56.2133 12.48C56.3199 10.9866 55.1467 9.59998 53.6533 9.59998H4.26666V15.8934C4.26666 23.04 5.12004 26.9867 6.82666 33.92C7.25329 35.3066 8.42666 36.2666 9.92004 36.2666H19.3067C21.0133 36.2666 22.4 34.88 22.4 33.1732V23.4666H35.2V50.1332H4.26666V62.9332H57.1733C58.5599 62.9332 59.7333 61.7599 59.7333 60.3732V56.32C59.7334 52.9066 59.52 49.4934 58.9867 46.1866Z" fill="#FFF7E1"/>
<path d="M1.06665 62.9333H4.26665V50.1333H1.06665V62.9333Z" fill="white"/>
<path d="M6.72008 36.2666H9.92008C8.53346 36.2666 7.25346 35.3066 6.93346 33.92C5.12008 26.9866 4.26683 23.04 4.26683 15.8934V9.59998H1.06683V15.8934C1.06683 23.04 1.92021 26.9867 3.62683 33.92C4.05346 35.3066 5.22671 36.2666 6.72008 36.2666Z" fill="white"/>
<path d="M61.8666 46.1866L59.4133 33.92C57.8133 25.8134 58.2399 20.6934 59.0933 12.48C59.3066 10.88 58.0266 9.59998 56.5333 9.59998H53.3333C54.8266 9.59998 56.1066 10.88 55.8933 12.48C55.0399 20.6934 54.6133 25.8134 56.2133 33.92L58.6666 46.1866C59.2 49.4932 59.4133 52.9066 59.4133 56.2132V60.2666C59.4133 61.6532 58.2399 62.8266 56.8533 62.8266H60.0533C61.4399 62.8266 62.6133 61.6532 62.6133 60.2666V56.2132C62.6134 52.9066 62.4 49.4934 61.8666 46.1866Z" fill="#FFA800"/>
<path d="M63.7866 42.3467C63.68 41.7067 63.36 39.68 63.36 39.04C63.2534 37.44 63.2534 37.6534 62.9334 36.16C61.76 30.8267 62.1868 32.64 61.8668 30.8267C60.8001 24.32 61.1201 19.7333 61.8668 12.3733C62.0801 10.8799 60.8001 9.49329 59.3068 9.49329H56.5334C58.0268 9.49329 59.3068 10.7733 59.0934 12.3733C58.24 20.5867 58.0268 25.7067 59.7334 33.8133L64 55.4667V46.2933C64 45.0134 64 43.7334 63.7866 42.3467Z" fill="#FFF7E1"/>
<path d="M12.8 27.7333C11.6266 27.7333 10.6666 26.7733 10.6666 25.5999V21.3333C10.6666 20.16 11.6266 19.2 12.8 19.2C13.9734 19.2 14.9334 20.16 14.9334 21.3333V25.5999C14.9334 26.7733 13.9734 27.7333 12.8 27.7333Z" fill="#E1B137"/>
<path d="M51.2 38.4C51.2 41.92 48.32 44.8 44.8 44.8C44.16 44.8 41.6 41.92 41.6 38.4C41.6 34.88 44.16 32 44.8 32C48.32 32 51.2 34.88 51.2 38.4Z" fill="#E1B137"/>
<path d="M60.3734 64H1.06662C0.426625 64 0 63.5733 0 62.9333V50.1333C0 49.4933 0.426625 49.0667 1.06662 49.0667H34.1333V24.5333H23.4666V33.1733C23.4666 35.5199 21.5466 37.3333 19.3066 37.3333H6.72C4.8 37.3333 3.09337 36.0533 2.66663 34.1333C0.96 27.1999 0 23.2533 0 15.8933V9.59995C0 8.95995 0.426625 8.53333 1.06662 8.53333H56.8532C57.9199 8.53333 58.8799 8.95995 59.5199 9.7067C60.1599 10.4533 60.5865 11.5201 60.4799 12.4801C59.6265 20.9067 59.1999 25.7067 60.7999 33.6001L63.2533 45.8667C63.7866 49.2801 63.9999 52.6933 63.9999 56.1067V60.1601C64 62.4 62.4 64 60.3734 64ZM2.13337 61.8666H60.3734C61.2267 61.8666 61.8667 61.2266 61.8667 60.3732V56.32C61.8667 53.0133 61.6534 49.7066 61.1201 46.5066L58.6668 34.1332C57.0668 25.9198 57.3867 20.7998 58.3467 12.3732C58.3467 11.9466 58.2401 11.5198 57.9201 11.1998C57.6001 10.8798 57.2801 10.6665 56.8535 10.6665H2.13337V15.8931C2.13337 23.0397 2.98675 26.8797 4.69338 33.5997C4.90675 34.5597 5.76 35.0931 6.72 35.0931H19.3066C20.48 35.0931 21.3333 34.1331 21.3333 33.0665V23.4664C21.3333 22.8264 21.7599 22.3998 22.3999 22.3998H35.1999C35.8399 22.3998 36.2665 22.8264 36.2665 23.4664V50.1331C36.2665 50.7731 35.8399 51.1997 35.1999 51.1997H2.13337V61.8666Z" fill="#A4A4A4"/>
<path d="M12.8 44.7999C12.16 44.7999 11.7334 44.3733 11.7334 43.7333V36.2667C11.7334 35.6267 12.16 35.2001 12.8 35.2001C13.44 35.2001 13.8666 35.6267 13.8666 36.2667V43.7333C13.8666 44.3733 13.44 44.7999 12.8 44.7999Z" fill="#ED2024"/>
<path d="M12.8 20.2666C12.16 20.2666 11.7334 19.8399 11.7334 19.1999V14.9333C11.7334 14.2933 12.16 13.8667 12.8 13.8667C13.44 13.8667 13.8666 14.2933 13.8666 14.9333V19.1999C13.8666 19.8399 13.44 20.2666 12.8 20.2666Z" fill="#A4A4A4"/>
<path d="M17.0666 10.6667C16.4266 10.6667 16 10.24 16 9.60005V3.20005C16 2.56005 16.4266 2.13342 17.0666 2.13342C17.7066 2.13342 18.1332 2.56005 18.1332 3.20005V9.60005C18.1334 10.24 17.7066 10.6667 17.0666 10.6667Z" fill="#A4A4A4"/>
<path d="M46.9334 10.6667C46.2934 10.6667 45.8668 10.24 45.8668 9.60005V3.20005C45.8668 2.56005 46.2934 2.13342 46.9334 2.13342C47.5734 2.13342 48 2.56005 48 3.20005V9.60005C48 10.24 47.5734 10.6667 46.9334 10.6667Z" fill="#A4A4A4"/>
<path d="M12.8 32C12.16 32 11.7334 31.5734 11.7334 30.9334V27.7334C11.7334 27.0934 12.16 26.6667 12.8 26.6667C13.44 26.6667 13.8666 27.0934 13.8666 27.7334V30.9334C13.8666 31.5734 13.44 32 12.8 32Z" fill="#A4A4A4"/>
<path d="M14.9334 41.6H10.6666C10.0266 41.6 9.59998 41.1734 9.59998 40.5334C9.59998 39.8934 10.0266 39.4668 10.6666 39.4668H14.9332C15.5732 39.4668 15.9999 39.8934 15.9999 40.5334C16 41.1734 15.5734 41.6 14.9334 41.6Z" fill="#ED2024"/>
<path d="M12.8 28.8C10.9866 28.8 9.59998 27.4134 9.59998 25.6V21.3334C9.59998 19.52 10.9866 18.1334 12.8 18.1334C14.6134 18.1334 16 19.52 16 21.3334V25.6C16 27.4134 14.6134 28.8 12.8 28.8ZM12.8 20.2667C12.16 20.2667 11.7333 20.6933 11.7333 21.3333V25.6C11.7333 26.24 12.16 26.6667 12.8 26.6667C13.44 26.6667 13.8666 26.24 13.8666 25.6V21.3334C13.8666 20.6934 13.44 20.2667 12.8 20.2667Z" fill="#A4A4A4"/>
<path d="M48 45.8666C43.84 45.8666 40.5334 42.56 40.5334 38.4C40.5334 34.24 43.84 30.9333 48 30.9333C52.16 30.9333 55.4666 34.24 55.4666 38.4C55.4666 42.56 52.16 45.8666 48 45.8666ZM48 33.0666C45.0134 33.0666 42.6666 35.4132 42.6666 38.4C42.6666 41.3866 45.0133 43.7333 48 43.7333C50.9866 43.7333 53.3334 41.3867 53.3334 38.4C53.3334 35.4134 50.9866 33.0666 48 33.0666Z" fill="#ED2024"/>
<path d="M46.9334 50.1334C46.9334 50.7734 46.5067 51.2 45.8667 51.2C45.2267 51.2 44.8001 50.7734 44.8001 50.1334C44.8001 49.4934 45.2267 49.0668 45.8667 49.0668C46.5067 49.0668 46.9334 49.4934 46.9334 50.1334Z" fill="#A4A4A4"/>
<path d="M51.2 50.1334C51.2 50.7734 50.7734 51.2 50.1334 51.2C49.4934 51.2 49.0668 50.7734 49.0668 50.1334C49.0668 49.4934 49.4934 49.0668 50.1334 49.0668C50.7734 49.0668 51.2 49.4934 51.2 50.1334Z" fill="#A4A4A4"/>
<path d="M44.8 26.6666C44.8 27.3066 44.3734 27.7332 43.7334 27.7332C43.0934 27.7332 42.6667 27.3066 42.6667 26.6666C42.6667 26.0266 43.0934 25.6 43.7334 25.6C44.3734 25.6 44.8 26.0266 44.8 26.6666Z" fill="#A4A4A4"/>
<path d="M49.0666 26.6666C49.0666 27.3066 48.64 27.7332 48 27.7332C47.36 27.7332 46.9333 27.3066 46.9333 26.6666C46.9333 26.0266 47.36 25.6 48 25.6C48.64 25.6 49.0666 26.0266 49.0666 26.6666Z" fill="#A4A4A4"/>
<path d="M53.3334 26.6666C53.3334 27.3066 52.9068 27.7332 52.2668 27.7332C51.6268 27.7332 51.2001 27.3066 51.2001 26.6666C51.2001 26.0266 51.6268 25.6 52.2668 25.6C52.9068 25.6 53.3334 26.0266 53.3334 26.6666Z" fill="#A4A4A4"/>
<path d="M34.1334 17.0666H23.4668C22.8268 17.0666 22.4001 16.64 22.4001 16C22.4001 15.36 22.8268 14.9333 23.4668 14.9333H34.1334C34.7734 14.9333 35.2 15.36 35.2 16C35.2 16.64 34.7734 17.0666 34.1334 17.0666Z" fill="#A4A4A4"/>
<path d="M22.4 55.4666H1.06662C0.426625 55.4666 0 55.04 0 54.4C0 53.76 0.426625 53.3334 1.06662 53.3334H22.4C23.04 53.3334 23.4666 53.76 23.4666 54.4C23.4666 55.04 23.04 55.4666 22.4 55.4666Z" fill="#A4A4A4"/>
<path d="M11.7334 59.7334H1.06662C0.426625 59.7334 0 59.3067 0 58.6667C0 58.0267 0.426625 57.6001 1.06662 57.6001H11.7332C12.3733 57.6001 12.7999 58.0267 12.7999 58.6667C12.8 59.3066 12.3734 59.7334 11.7334 59.7334Z" fill="#A4A4A4"/>
<path d="M42.6666 6.4H21.3333C20.6933 6.4 20.2667 5.97337 20.2667 5.33337V1.06662C20.2667 0.426625 20.6933 0 21.3333 0H42.6667C43.3067 0 43.7333 0.426625 43.7333 1.06662V5.33325C43.7333 5.97337 43.3066 6.4 42.6666 6.4ZM22.4 4.26662H41.6V2.13337H22.4V4.26662Z" fill="#A4A4A4"/>
<path d="M21.3334 4.26667H17.0667C16.4267 4.26667 16.0001 3.84005 16.0001 3.20005C16.0001 2.56005 16.4267 2.13342 17.0667 2.13342H21.3334C21.9734 2.13342 22.4 2.56005 22.4 3.20005C22.4 3.84005 21.9734 4.26667 21.3334 4.26667Z" fill="#A4A4A4"/>
<path d="M46.9333 4.26667H42.6667C42.0267 4.26667 41.6001 3.84005 41.6001 3.20005C41.6001 2.56005 42.0267 2.13342 42.6667 2.13342H46.9333C47.5733 2.13342 48 2.56005 48 3.20005C48 3.84005 47.5733 4.26667 46.9333 4.26667Z" fill="#A4A4A4"/>
<path d="M26.6666 6.4C26.0266 6.4 25.6 5.97337 25.6 5.33337V1.06662C25.6 0.426625 26.0266 0 26.6666 0C27.3066 0 27.7332 0.426625 27.7332 1.06662V5.33325C27.7333 5.97337 27.3066 6.4 26.6666 6.4Z" fill="#A4A4A4"/>
<path d="M32 6.4C31.36 6.4 30.9333 5.97337 30.9333 5.33337V1.06662C30.9333 0.426625 31.36 0 32 0C32.64 0 33.0666 0.426625 33.0666 1.06662V5.33325C33.0666 5.97337 32.64 6.4 32 6.4Z" fill="#A4A4A4"/>
<path d="M37.3333 6.4C36.6933 6.4 36.2667 5.97337 36.2667 5.33337V1.06662C36.2667 0.426625 36.6933 0 37.3333 0C37.9733 0 38.4 0.426625 38.4 1.06662V5.33325C38.4 5.97337 37.9733 6.4 37.3333 6.4Z" fill="#A4A4A4"/>
<path d="M50.1334 41.6C49.8134 41.6 49.6 41.4934 49.3868 41.28L45.1201 37.0134C44.6935 36.5868 44.6935 35.9468 45.1201 35.52C45.5468 35.0934 46.1868 35.0934 46.6135 35.52L50.8801 39.7867C51.3068 40.2133 51.3068 40.8533 50.8801 41.28C50.6666 41.4934 50.4534 41.6 50.1334 41.6Z" fill="#ED2024"/>
<path d="M45.8666 41.6C45.5466 41.6 45.3333 41.4934 45.12 41.28C44.6934 40.8534 44.6934 40.2134 45.12 39.7867L49.3866 35.52C49.8133 35.0934 50.4533 35.0934 50.88 35.52C51.3066 35.9467 51.3066 36.5867 50.88 37.0134L46.6134 41.28C46.4 41.4934 46.1866 41.6 45.8666 41.6Z" fill="#ED2024"/>
</svg>
