<svg width="77" height="77" viewBox="0 0 77 77" fill="none" xmlns="http://www.w3.org/2000/svg">
<path d="M50.6242 34.5373L50.4439 32.1487L52.6168 31.1326C54.1396 31.1528 55.6563 31.2778 57.1587 31.5056C56.6047 32.4339 53.2424 34.1487 52.6168 34.1972L50.6242 34.5373Z" fill="#DDB57A"/>
<path d="M19.3329 77C23.6615 77 27.1705 73.491 27.1705 69.1624C27.1705 64.8339 23.6615 61.3249 19.3329 61.3249C15.0044 61.3249 11.4954 64.8339 11.4954 69.1624C11.4954 73.491 15.0044 77 19.3329 77Z" fill="#FDF5C6"/>
<path d="M19.3329 74.2462C22.1406 74.2462 24.4167 71.9701 24.4167 69.1624C24.4167 66.3547 22.1406 64.0786 19.3329 64.0786C16.5252 64.0786 14.2491 66.3547 14.2491 69.1624C14.2491 71.9701 16.5252 74.2462 19.3329 74.2462Z" fill="#D6B71D"/>
<path d="M48.2449 12.4094C48.7708 10.8802 50.3933 10.0237 51.9536 10.4481L57.2804 11.9022C58.5753 14.8088 58.5753 14.8088 56.6483 16.9152L48.844 15.3428L46.6579 16.8251L48.2449 12.4094Z" fill="#DDB57A"/>
<path d="M50.0833 21.9179L49.3622 21.5123L50.1735 19.1236C50.1735 18.0064 48.9471 17.5912 47.8299 17.5912L48.8441 15.3428L49.7194 14.3863C51.6464 12.2799 54.5187 11.3564 57.2804 11.9024L57.2944 11.9055H57.3007L58.5708 12.2534L58.613 12.2644L72.4792 17.2621V29.6646C71.6178 29.6646 70.766 29.794 69.9515 30.0437C69.137 30.2932 68.36 30.6648 67.6485 31.1499L66.4096 31.9923C65.1412 32.8553 63.5481 33.0924 62.0846 32.6368C60.476 32.1375 58.8345 31.7599 57.1729 31.5072L57.1589 31.5056C55.6564 31.2777 54.1398 31.153 52.617 31.1326C52.461 31.1295 51.0056 35.3035 50.8497 35.3035L45.4865 34.8528C43.8326 34.8528 40.6696 33.3385 40.0331 31.9233C39.8007 31.4131 39.0415 29.5898 39.0415 28.9938C39.0415 27.8672 39.6105 24.3235 40.3486 23.5855C41.085 22.8474 41.1616 22.4587 42.2865 22.4587L44.3147 21.5573C44.5297 21.5573 49.8695 21.9287 50.0833 21.9179Z" fill="#FCD18B"/>
<path d="M58.0817 21.5145H52.3009L52.3074 22.963C52.3076 22.963 56.0855 23.1287 58.0817 21.5145Z" fill="#DDB57A"/>
<path d="M52.6224 22.9637C52.4096 22.9745 52.1933 22.9781 51.9788 22.9781H45.8241C44.7803 22.9781 43.8285 23.3711 43.1091 24.0165C43.0533 24.0652 42.9992 24.1175 42.9451 24.1716C42.206 24.9107 41.7517 25.9275 41.7517 27.0542C41.7517 27.6509 41.8797 28.2188 42.1122 28.729H19.7038V17.3661C19.7038 16.2484 20.6106 15.3434 21.7283 15.3434H50.5925C51.7102 15.3434 52.6168 16.2484 52.6168 17.3661V22.8249L52.6224 22.9637Z" fill="#D6D6D6"/>
<path d="M52.617 31.1321V33.6398H19.7038V28.729H42.1122C42.6765 29.9819 43.8555 30.8977 45.2653 31.0906C45.4474 31.1159 45.6348 31.1285 45.8241 31.1285H52.1483C52.3051 31.1285 52.4601 31.1303 52.617 31.1321Z" fill="#ED2024"/>
<path d="M52.617 33.6397V35.4226C52.617 36.5404 51.7102 37.4472 50.5926 37.4472H21.7284C20.6107 37.4472 19.7039 36.5404 19.7039 35.4226V33.6397H52.617Z" fill="#D6D6D6"/>
<path d="M45.5735 24.4009C44.1086 24.4009 42.9211 25.5884 42.9211 27.0533C42.9211 28.5182 44.1086 29.7057 45.5735 29.7057C47.0385 29.7057 47.4773 28.5182 47.4773 27.0533C47.4773 25.5884 47.0385 24.4009 45.5735 24.4009Z" fill="white"/>
<path d="M34.144 3.49017V50.5966C34.144 52.5256 32.581 54.0886 30.652 54.0886H8.01278C6.08562 54.0886 4.52081 52.5256 4.52081 50.5966V3.49017C4.52081 1.563 6.08562 0 8.01278 0H30.652C32.581 0 34.144 1.563 34.144 3.49017Z" fill="#E1B137"/>
<path d="M32.7468 7.13898V45.9941H5.91977V7.13898H32.7468Z" fill="white"/>
<path d="M32.7468 11.0167V29.6426H14.5976V13.8314C14.5976 12.2761 15.8593 11.0169 17.4146 11.0169L32.7468 11.0167Z" fill="#D6D6D6"/>
<path d="M32.7468 29.6426V36.4759H14.5976V29.6426H32.7468Z" fill="#E1B137"/>
<path d="M32.7468 36.4758V41.7738H17.4146C15.8593 41.7738 14.5976 40.5121 14.5976 38.9568V36.4758H32.7468Z" fill="#D6D6D6"/>
<path d="M20.3978 24.368C20.3978 25.7796 20.9332 27.0704 21.8112 28.0439C21.6886 28.0583 21.566 28.0637 21.4416 28.0637C19.4009 28.0637 17.7459 26.4088 17.7459 24.368C17.7459 22.3273 19.4009 20.6724 21.4416 20.6724C21.566 20.6724 21.6886 20.6778 21.8112 20.6922C20.9332 21.6657 20.3978 22.9565 20.3978 24.368Z" fill="#F4D521"/>
<path d="M29.5921 24.368C29.5921 22.3269 27.9376 20.6724 25.8965 20.6724C23.8554 20.6724 22.2008 22.3269 22.2008 24.368C22.2008 26.4091 23.8554 28.0637 25.8965 28.0637C27.9374 28.0637 29.5921 26.4091 29.5921 24.368Z" fill="#F4D521"/>
<path d="M30.652 0H10.6845L12.8603 7.13898H32.7468V11.0167V29.6426V36.4758V41.7738V45.9941H24.7021L27.169 54.0886H30.652C32.581 54.0886 34.144 52.5256 34.144 50.5966V37.4472V33.6397V28.729V15.3434V3.49017C34.144 1.563 32.581 0 30.652 0Z" fill="#FDF5C6"/>
<path d="M32.7468 41.7738H23.4158L24.7021 45.9941H32.7468V41.7738ZM32.7468 7.13898H12.8603L14.6859 13.1294C14.9982 11.9142 16.1018 11.0167 17.4146 11.0167H32.7468V7.13898Z" fill="white"/>
<path d="M25.8965 28.0637C23.8554 28.0637 22.2008 26.4091 22.2008 24.368C22.2008 22.327 23.8554 20.6724 25.8965 20.6724C27.9376 20.6724 29.5922 22.327 29.5922 24.368C29.5922 26.4091 27.9374 28.0637 25.8965 28.0637ZM32.7468 11.0167H17.4146C16.1018 11.0167 14.998 11.9141 14.6859 13.1294L17.8476 23.5036C18.237 21.8799 19.6985 20.6724 21.4416 20.6724C21.566 20.6724 21.6886 20.6778 21.8112 20.6922C20.9333 21.6657 20.3978 22.9565 20.3978 24.368C20.3978 25.7796 20.9333 27.0704 21.8112 28.0439C21.6886 28.0583 21.566 28.0637 21.4416 28.0637C20.477 28.0637 19.5985 27.6938 18.9403 27.0883L19.7187 29.6426H32.7468V11.0167Z" fill="#FFF7E1"/>
<path d="M32.7468 29.6426H19.7185L21.8011 36.4759H32.7468V29.6426Z" fill="#ED2024"/>
<path d="M32.7468 36.4758H21.8011L23.4158 41.7738H32.7468V36.4758Z" fill="#FFF7E1"/>
<path d="M21.4416 20.6724C19.6985 20.6724 18.237 21.8797 17.8476 23.5036L18.9401 27.0883C19.5983 27.6938 20.4768 28.0637 21.4415 28.0637C21.5658 28.0637 21.6884 28.0583 21.811 28.0439C20.9331 27.0704 20.3976 25.7796 20.3976 24.368C20.3976 22.9565 20.9331 21.6657 21.811 20.6922C21.6886 20.6778 21.566 20.6724 21.4416 20.6724Z" fill="#F8E368"/>
<path d="M25.8965 20.6724C23.8554 20.6724 22.2008 22.3269 22.2008 24.368C22.2008 26.4091 23.8554 28.0637 25.8965 28.0637C27.9376 28.0637 29.5921 26.4091 29.5921 24.368C29.5921 22.3269 27.9374 20.6724 25.8965 20.6724Z" fill="#F8E368"/>
<path d="M18.702 54.9573V59.5544H19.9639V54.9573" fill="#D6B71D"/>
<path d="M21.8568 54.9573V60.4235H23.1187V54.9573" fill="#D6B71D"/>
<path d="M15.5471 54.9573V60.4235H16.809V54.9573" fill="#D6B71D"/>
<path d="M19.3329 52.9119C20.8596 52.9119 22.0971 51.6744 22.0971 50.1477C22.0971 48.6211 20.8596 47.3835 19.3329 47.3835C17.8063 47.3835 16.5687 48.6211 16.5687 50.1477C16.5687 51.6744 17.8063 52.9119 19.3329 52.9119Z" fill="#4D4D4D"/>
<path d="M45.2653 31.0906L46.0423 33.6397H52.617V31.132C52.4601 31.1302 52.3051 31.1284 52.1483 31.1284H45.8241C45.6348 31.1284 45.4474 31.1158 45.2653 31.0906Z" fill="#868686"/>
<path d="M52.617 33.6397H46.0423L47.2014 37.4472H50.5925C51.7102 37.4472 52.6168 36.5404 52.6168 35.4226V33.6397" fill="#FFF7E1"/>
<path d="M50.5925 15.3434H48.8431H47.1904H40.4661L43.109 24.0165C43.8283 23.3711 44.7801 22.9781 45.8239 22.9781H51.9786C52.1931 22.9781 52.4095 22.9745 52.6222 22.9637L52.6168 22.8249V21.5145V17.3661C52.617 16.2484 51.7102 15.3434 50.5925 15.3434Z" fill="#FFF7E1"/>
</svg>
